<svg width="153" height="41" viewBox="0 0 153 41" fill="none" xmlns="http://www.w3.org/2000/svg">
<path d="M42.1 32V10.4H50.74C52.28 10.4 53.525 10.71 54.475 11.33C55.425 11.94 56.12 12.71 56.56 13.64C57 14.57 57.22 15.51 57.22 16.46C57.22 17.67 56.945 18.675 56.395 19.475C55.855 20.275 55.11 20.81 54.16 21.08V20.33C55.51 20.61 56.52 21.235 57.19 22.205C57.87 23.175 58.21 24.26 58.21 25.46C58.21 26.75 57.97 27.885 57.49 28.865C57.02 29.845 56.3 30.615 55.33 31.175C54.36 31.725 53.14 32 51.67 32H42.1ZM46.24 28.16H51.25C51.8 28.16 52.29 28.045 52.72 27.815C53.15 27.575 53.485 27.245 53.725 26.825C53.975 26.395 54.1 25.89 54.1 25.31C54.1 24.8 53.995 24.345 53.785 23.945C53.575 23.545 53.255 23.23 52.825 23C52.405 22.76 51.88 22.64 51.25 22.64H46.24V28.16ZM46.24 18.83H50.68C51.14 18.83 51.55 18.75 51.91 18.59C52.27 18.43 52.555 18.185 52.765 17.855C52.975 17.515 53.08 17.08 53.08 16.55C53.08 15.89 52.875 15.335 52.465 14.885C52.055 14.435 51.46 14.21 50.68 14.21H46.24V18.83ZM70.2316 32.45C68.5716 32.45 67.1066 32.095 65.8366 31.385C64.5766 30.665 63.5866 29.68 62.8666 28.43C62.1566 27.17 61.8016 25.73 61.8016 24.11C61.8016 22.34 62.1516 20.8 62.8516 19.49C63.5516 18.18 64.5166 17.165 65.7466 16.445C66.9766 15.715 68.3916 15.35 69.9916 15.35C71.6916 15.35 73.1366 15.75 74.3266 16.55C75.5166 17.35 76.3966 18.475 76.9666 19.925C77.5366 21.375 77.7366 23.08 77.5666 25.04H73.5316V23.54C73.5316 21.89 73.2666 20.705 72.7366 19.985C72.2166 19.255 71.3616 18.89 70.1716 18.89C68.7816 18.89 67.7566 19.315 67.0966 20.165C66.4466 21.005 66.1216 22.25 66.1216 23.9C66.1216 25.41 66.4466 26.58 67.0966 27.41C67.7566 28.23 68.7216 28.64 69.9916 28.64C70.7916 28.64 71.4766 28.465 72.0466 28.115C72.6166 27.765 73.0516 27.26 73.3516 26.6L77.4316 27.77C76.8216 29.25 75.8566 30.4 74.5366 31.22C73.2266 32.04 71.7916 32.45 70.2316 32.45ZM64.8616 25.04V22.01H75.6016V25.04H64.8616ZM91.4535 32.45C90.0935 32.45 88.7985 32.21 87.5685 31.73C86.3385 31.24 85.2485 30.52 84.2985 29.57C83.3585 28.62 82.6135 27.445 82.0635 26.045C81.5235 24.645 81.2535 23.03 81.2535 21.2C81.2535 18.81 81.7085 16.78 82.6185 15.11C83.5385 13.43 84.7685 12.15 86.3085 11.27C87.8585 10.39 89.5735 9.95 91.4535 9.95C94.2335 9.95 96.4185 10.595 98.0085 11.885C99.5985 13.175 100.664 15 101.204 17.36L97.0335 17.96C96.6435 16.7 96.0035 15.695 95.1135 14.945C94.2335 14.185 93.1035 13.8 91.7235 13.79C90.3535 13.77 89.2135 14.065 88.3035 14.675C87.3935 15.285 86.7085 16.15 86.2485 17.27C85.7985 18.39 85.5735 19.7 85.5735 21.2C85.5735 22.7 85.7985 24 86.2485 25.1C86.7085 26.2 87.3935 27.055 88.3035 27.665C89.2135 28.275 90.3535 28.59 91.7235 28.61C92.6535 28.63 93.4935 28.47 94.2435 28.13C95.0035 27.79 95.6435 27.255 96.1635 26.525C96.6835 25.795 97.0535 24.86 97.2735 23.72H93.8535V20.57H101.624C101.644 20.7 101.659 20.93 101.669 21.26C101.679 21.59 101.684 21.78 101.684 21.83C101.684 23.9 101.264 25.735 100.424 27.335C99.5835 28.935 98.3985 30.19 96.8685 31.1C95.3385 32 93.5335 32.45 91.4535 32.45ZM110.69 32.45C109.53 32.45 108.545 32.23 107.735 31.79C106.935 31.34 106.325 30.745 105.905 30.005C105.495 29.255 105.29 28.43 105.29 27.53C105.29 26.78 105.405 26.095 105.635 25.475C105.865 24.855 106.235 24.31 106.745 23.84C107.265 23.36 107.96 22.96 108.83 22.64C109.43 22.42 110.145 22.225 110.975 22.055C111.805 21.885 112.745 21.725 113.795 21.575C114.845 21.415 116 21.24 117.26 21.05L115.79 21.86C115.79 20.9 115.56 20.195 115.1 19.745C114.64 19.295 113.87 19.07 112.79 19.07C112.19 19.07 111.565 19.215 110.915 19.505C110.265 19.795 109.81 20.31 109.55 21.05L105.86 19.88C106.27 18.54 107.04 17.45 108.17 16.61C109.3 15.77 110.84 15.35 112.79 15.35C114.22 15.35 115.49 15.57 116.6 16.01C117.71 16.45 118.55 17.21 119.12 18.29C119.44 18.89 119.63 19.49 119.69 20.09C119.75 20.69 119.78 21.36 119.78 22.1V32H116.21V28.67L116.72 29.36C115.93 30.45 115.075 31.24 114.155 31.73C113.245 32.21 112.09 32.45 110.69 32.45ZM111.56 29.24C112.31 29.24 112.94 29.11 113.45 28.85C113.97 28.58 114.38 28.275 114.68 27.935C114.99 27.595 115.2 27.31 115.31 27.08C115.52 26.64 115.64 26.13 115.67 25.55C115.71 24.96 115.73 24.47 115.73 24.08L116.93 24.38C115.72 24.58 114.74 24.75 113.99 24.89C113.24 25.02 112.635 25.14 112.175 25.25C111.715 25.36 111.31 25.48 110.96 25.61C110.56 25.77 110.235 25.945 109.985 26.135C109.745 26.315 109.565 26.515 109.445 26.735C109.335 26.955 109.28 27.2 109.28 27.47C109.28 27.84 109.37 28.16 109.55 28.43C109.74 28.69 110.005 28.89 110.345 29.03C110.685 29.17 111.09 29.24 111.56 29.24ZM125.48 13.55V9.95H129.56V13.55H125.48ZM125.48 32V15.8H129.56V32H125.48ZM146.597 32V24.35C146.597 23.98 146.577 23.51 146.537 22.94C146.497 22.36 146.372 21.78 146.162 21.2C145.952 20.62 145.607 20.135 145.127 19.745C144.657 19.355 143.987 19.16 143.117 19.16C142.767 19.16 142.392 19.215 141.992 19.325C141.592 19.435 141.217 19.65 140.867 19.97C140.517 20.28 140.227 20.74 139.997 21.35C139.777 21.96 139.667 22.77 139.667 23.78L137.327 22.67C137.327 21.39 137.587 20.19 138.107 19.07C138.627 17.95 139.407 17.045 140.447 16.355C141.497 15.665 142.817 15.32 144.407 15.32C145.677 15.32 146.712 15.535 147.512 15.965C148.312 16.395 148.932 16.94 149.372 17.6C149.822 18.26 150.142 18.95 150.332 19.67C150.522 20.38 150.637 21.03 150.677 21.62C150.717 22.21 150.737 22.64 150.737 22.91V32H146.597ZM135.527 32V15.8H139.157V21.17H139.667V32H135.527Z" fill="#3D5AF1"/>
<path d="M0.310928 19.6956H23.6065C27.4485 19.6956 30.563 22.8101 30.563 26.6521C30.563 30.4941 27.4485 33.6087 23.6065 33.6087H0.310928V19.6956Z" fill="#3D5AF1"/>
<path d="M0.310928 7.52177H16.1385C19.02 7.52177 21.3559 9.85767 21.3559 12.7392C21.3559 15.6206 19.02 17.9565 16.1385 17.9565H0.310928V7.52177Z" fill="#3D5AF1"/>
</svg>
